<svg xmlns="http://www.w3.org/2000/svg" width="40.237" height="37.737" viewBox="0 0 40.237 37.737"><g transform="translate(-1985.881 136.7)"><path d="M11.839-26.416,17.76-36.679,10.1-40.232l7.658-3.553L11.839-54.047,4.892-49.153,5.681-57.6H-6.161l.789,8.447-6.947-4.895L-18.24-43.784l7.658,3.553-7.658,3.553,5.921,10.263,6.947-4.895-.789,8.447H5.681l-.789-8.447Z" transform="translate(2006.24 -77.6)" fill="rgba(255,255,255,0)"/><path d="M7.328-21.363H-7.808l.64-6.847-5.63,3.966L-20.359-37.35l6.212-2.882-6.212-2.882L-12.8-56.219l5.63,3.966-.64-6.847H7.328l-.64,6.847,5.63-3.966,7.561,13.106-6.212,2.882,6.212,2.882L12.318-24.244,6.688-28.21Zm-11.842-3H4.034L3.1-34.411l8.265,5.823,4.281-7.42-9.1-4.223,9.1-4.223-4.281-7.42L3.1-46.052,4.034-56.1H-4.514l.939,10.048-8.265-5.823-4.281,7.42,9.1,4.223-9.1,4.223,4.281,7.42,8.265-5.823Z" transform="translate(2006.24 -77.6)" fill="#ff5330"/></g></svg>