<svg xmlns="http://www.w3.org/2000/svg" width="432.207" height="293.781" viewBox="0 0 432.207 293.781"><g transform="translate(662.462 -241.683)"><rect width="431.773" height="293.61" transform="translate(-662.029 241.855)" fill="rgba(255,255,255,0)"/><path d="M280.982,627.826c30.4,18.094,68.742,44.619,80.092,83.339,1.208,4.127.051,9.9,1.647,14.026.287.734,15.86,19.824,15.691,19.8,1.453.16,15.665-15.824,17.337-17.326,7.2-6.456,10.674-11.7,22.295-11.554,3.175,2.236,3.209,11.41,1.689,15.68,33.155-6.321,70.465-.152,88.343,16.5-3.234,2.152-7.6-1.62-10.734-3.3-17.734-9.562-49.319-18.069-77.609-9.072-4.9,16.28-13.351,29.015-22.286,41.252,8.166,19.858-2.365,34.542-14.036,46.206-22.962,22.947-63.574,34.779-108.163,28.052-2.314,3.2.7,11.705-1.689,14.853-2.466,3.84-5.852-4.937-9.078-5.773-17.532,16.2-79.594,35.623-110.629,17.326-14.247-8.439-6.671-30.77,3.3-40.433-2.584-.169-6.063.557-7.432-.844-2.483,1.072.236,7.984-2.474,10.727-16.214,2.9-26.931-6.566-30.545-18.98-31.854-9.174-42.309-46.206-40.46-88.284.557-12.659.127-26.339,5.776-36.289,9.661,1.772,12.169,12.76,15.691,20.626,3.733,8.33,7.6,17.318,11.561,24.753,4.45-9.283,8.513-18.989,14.036-27.225-12.667-13.5-23.967-25.031-21.467-50.333,2.854-28.922,29.887-41.2,66.048-38.821,3.446.228,10.776,3.561,15.691,2.473,3.057-.675,9.653-8.633,13.208-11.554,7.668-6.279,16.045-12.085,32.2-8.245,10.649-7.393,18.064-27.47,35.469-23.107C276.362,595.326,277.443,614.467,280.982,627.826Zm-23.114-32.179c-10.776.987-17.388,14.026-23.941,21.453,10.5,7.73,29.718,6.979,43.753,9.081C273.457,613.1,272.182,594.347,257.868,595.647Zm-68.531,41.26c16.7,5.443,31.5-5.907,37.158-18.98C206.058,616.214,196.769,625.657,189.337,636.907Zm36.313-9.9c4.434-1.62,10.708-1.409,14.036-4.127-6.173-4.363-11.967-3.182-14.019,4.127Zm-1.689,4.945c27.024-.633,39.1,13.739,55.323,23.926-13.6-11.41-30.588-39.758-55.272-23.926Zm55.323,17.326c.363-6.414-1.469-10.634-.845-17.326-6.8-2.836-17.211-6.448-26.424-4.127,10.455,5.857,17.312,15.225,27.319,21.453Zm3.3,3.3c3.978,5.967,10.134,9.283,14.863,14.026A184.528,184.528,0,0,1,336.3,725.192c4.45,1.595,7.043,5.063,11.561,6.6,1.9-.844,7.533-5.106,11.553-6.6-9.289-47.109-40.671-72.115-77.609-91.584a113.8,113.8,0,0,1,.836,18.972Zm-62.754-16.5c-1.579,2.819-3.851,4.945-4.121,9.072,25.453,7.022,43.821,21.1,63.574,33.834V661.66c-14.956-12.828-30.74-29.124-59.4-25.58Zm-99.845,9.039c-21.18,16.313-18.765,59.844,5.776,72.579,8.116-13.891,18.748-25.318,28.071-37.977-5.354-7.688-13.512-17.486-11.561-28.052,2.669-14.17,23.849-10.971,38.8-14.026C157.694,635.5,134.977,633.616,119.987,645.119Zm87.515-3.3c1.942,0,2.432,1.426,4.957.844.186-1.283,3.167-3.849.845-4.945-1.545,1.789-4.451,2.194-5.8,4.135Zm-61.927,9.908c-2.424,9.427,6.418,17.571,9.914,25.571,13.157-6.929,17.27-22.888,24.769-35.445-13.326,1.7-31.88-.954-34.683,9.908Zm30.554,7.418c5.346-6.481,13.512-10.178,18.993-16.5-4.138.557-6.393-.76-9.914-.844-3.454,4.861-8.5,12.448-9.078,17.377Zm23.941-12.338c-11.578,9.6-22.886,31.7-27.243,47.033,2.39,2.836,4.4,6.051,9.078,6.6,5.3-13.41,16.805-20.609,20.639-35.445-3.927-1.848-10.21-1.35-9.906-7.427,1.6-3.156,10.252-1.536,13.208-.844,1.03-3.654,3.209-6.144,4.13-9.9C206.134,644.73,202,645.211,200.071,646.806Zm9.087,11.554c6.41,3.08,10.565,4.886,18.984,5.773,17.413,1.831,30.444,12.659,42.934,19.807-12.929-18.432-34.624-28.137-57.8-36.289C212.392,651.693,209.723,653.971,209.157,658.36ZM172,666.605c-4.037,6.144-8.69,21.824-2.474,24.753,5.067-16.1,15.48-31.276,23.114-42.079C188.5,654.832,176.881,659.179,172,666.605Zm146.942,30.534c-10.894-14.145-22.261-27.85-36.313-38.779,11.882,12.617,25.5,27.884,36.339,38.779ZM204.175,661.694c1.047-3.3-5.582-3.156-6.6-1.688,2.728.051,3.184,2.346,6.629,1.654Zm2.474,1.646c3.479,0,6.241,4.144,8.259.844-2.761-.844-4.535-2.616-7.432-3.3a3.856,3.856,0,0,1-.8,2.422Zm76,18.98c14.095,12.043,25.065,31.605,44.581,35.445-11.358-21.1-27.235-37.69-44.581-52.805ZM204.2,669.905c2.111-.084,2.888-1.511,4.13-2.473-1.115-.262-1.579-1.173-3.3-.844C205.214,668.167,204.1,668.428,204.2,669.905Zm71.005,22.28c1.892-1.367-1.773-2.768-2.474-3.3-12.718-9.688-28.78-18.406-46.236-21.453C236.908,678.209,261.162,682.294,275.205,692.185ZM200.89,678.159c.22,4.642-4.4,8.777-2.474,12.381,7.66-7.081,23.317-10.026,36.313-9.081-7.558-10.245-26.036-17.022-33.831-3.3Zm-42.107,1.688c.287,2.734,2.474,3.578,4.13,4.946-.118-4.262,3.429-9.19,2.474-11.545a30.045,30.045,0,0,1-6.621,6.566Zm119.716,23.1v-6.6c-14.145-5.114-28.206-14.718-42.107-17.326,13.732,8.3,30.334,13.663,42.115,23.892Zm0-15.672c.92-5.064-4.577-8.051-6.6-7.427,3.074,1.561,3.75,5.578,6.612,7.393ZM128.238,720.229c7.229,6.532,17.219,10.3,27.252,14.026-3.04-17.343,7.508-26.744,5.776-45.379a22.885,22.885,0,0,0-5.776-5.772C146.361,695.443,135.678,706.22,128.238,720.229Zm109.784-34.652c-18.52-2.532-36.964,1.308-42.926,14.026,24.11-1.266,43.525,6.549,61.091,9.081-6.215-7.494-11.24-16.237-18.14-23.056Zm-50.357,13.2c3.125-2.937,8.631-7.849,6.6-13.2-1.41,4.642-7.634,8.878-6.579,13.208Zm110.629,3.3c-5.709-4.464-9.973-10.38-15.682-14.845-1.351,7.79,11.215,12.963,15.708,14.853Zm-21.442,18.153c.2-4.473,1.326-8.026.845-13.2-9.9-7.157-18.942-15.191-32.2-18.98C253.941,700.819,261.575,714.322,276.852,720.229ZM164.534,706.2c3.074-3.376,6.275-12.659,0-14.026.49,4.608-2.39,10.178.034,14.035Zm5.776-4.127c2.373.177,4.222-.2,4.957-1.688-2.593.388-2.179-2.22-4.13-2.473.372,2.059-1.469,1.84-.794,4.169Zm137.931,43.741c4.425-.388,9.289-7.106,12.38-11.553-7.744-14.533-20.378-28.593-35.469-33C289.283,719.647,303.454,728.044,308.242,745.817ZM285.12,708.684c-1.9-1.4-1.089-5.511-3.3-6.608-1.039,3.806,1.8,8.026,3.294,6.617Zm-99.076-4.954c.059,2.422,1.892,3.064,3.3,4.127.954-.979.937-2.92.845-4.954a5.391,5.391,0,0,0-4.155.836Zm73.471,10.727c-19.094-6.22-38.678-11.95-64.393-11.554-2.094.937-2.4,3.663-2.483,6.6,5.54,5.266,13.047,10.127,21.467,15.68,6.756,4.464,15.817,13.663,23.122,14.853,10.134,1.646,21.391-3.933,33.02-4.954-2.8-7.638-6.823-14.069-10.734-20.617ZM169.525,706.2c.177,3.241-2.339,8.077,0,10.727,1.689-4.625,11.392-9.115,8.251-13.2-2.027,1.553-5.65,1.511-8.251,2.481Zm-53.668,118c.262-5.232-.7-11.7.844-15.68-13.681-8.06-15.268-36.289-9.087-54.451-8.707-15.275-12.3-35.589-24.786-47.033C75.3,754.13,77.019,813.3,115.858,824.2Zm66.876-117.164c-6,8.574-9.695,19.461-12.389,31.352,4.712.253,8.327,1.587,13.216,1.688,1.3-9.705,2.905-19.1,4.949-28.053C187.319,709.6,184.54,708.8,182.733,707.038Zm-18.165,15.723c1.081-3.376,1.436-11.748.844-14.026C162.989,710.667,163.149,719.622,164.568,722.761Zm122.2,9.9c-1.529,2.329-4.763,2.945-7.432,4.127-1.25,11.815.583,21.563-.845,33,4.045-1.182,6.148-4.3,9.906-5.773-1.849-18.229,5.2-45.353-7.432-52.805-3.032,11.925,3.631,13.106,5.8,21.411Zm-99.9,7.427c12.22.844,32.091,2.372,42.934-.844-13.858-7.6-25.529-17.394-38.847-25.58-.887,9.224-3.564,16.693-4.087,26.381ZM324.744,729.36c0-2.709,2.348-3.156,1.689-6.6-4.678-2.751-9.441-5.427-14.044-8.254,3.454,5.536,8.023,10.06,12.355,14.811Zm-166.779,0c3.91-.236,2.8-9.823,1.647-12.381a35.264,35.264,0,0,0-1.647,12.338Zm11.561,0c.084-4.608,4.586-9.14,3.3-12.381-1.985,2.667-6.342,7.351-3.3,12.338Zm105.68,4.945c1.326-2.793,1.689-6.557,1.647-10.726-4.1-.844-7.812-6.465-11.553-4.946,4.662,3.823,4.78,12.229,9.906,15.63Zm119.716-1.688c-5.557,5.334-12.144,11.123-13.208,16.5,11.1-5.688,22.092-11.477,34.675-15.672.363-4.017,1.959-10.355,0-14.026C407.107,720.3,400.866,726.9,394.921,732.618ZM291.715,760.671c6.215-2.6,10.379-7.233,14.863-11.554-4.315-9.984-8.918-19.689-15.691-27.225C292.475,733.513,291.411,747.775,291.715,760.671ZM111.728,754.9c.591,10.338,10.235,18.465,13.208,28.053,7.052-17.723,17.971-31.546,28.071-46.206-10.455-3.03-18.579-8.355-27.243-13.208C122.343,733.96,111.052,743.167,111.728,754.9ZM329.7,725.192c-8.884,13.444,5.168,30.382,7.432,45.378C340.975,756.468,341.938,730.669,329.7,725.192ZM166.223,736.745c0-3.08-.642-9.773-1.689-9.081C164.762,731.048,164.973,734.416,166.223,736.745Zm113.112-4.127c2.044.118,4,.152,4.13-1.688-1.461-.743-1.368-3.038-3.3-3.3.1,2.068.118,4.009-.828,4.988Zm72.627,1.688a15.747,15.747,0,0,0,7.431,5.781c-.65-4.22,1.157-5.992.845-9.9-4.434-.363-7.474.726-8.251,4.076Zm-8.251,11.511c-.084-4.751,2.263-7.089,3.3-10.726-2.66-1.2-4.628-3.072-7.432-4.127C341.22,735.682,341.254,741.969,343.711,745.817ZM158.766,735.091c1.115.262,1.571,1.173,3.3.844-.456-1.468-.422-3.426-1.689-4.127C160.008,733.015,159.222,733.867,158.766,735.091Zm203.11,7.427c9.982,10.127,22.979,17.182,20.639,39.606-8.5,12.659-16.941,25.428-38,25.58-2.322-.979-2.762-3.84-4.121-5.781.279,9.621-.963,20.761,3.3,26.407,9.99-3.57,16.941-12.954,26.416-23.926,4.374-5.064,21.957-21.158,22.295-28.052.287-5.789-12.2-25.251-18.165-23.934,3.91-8.836-6.089-15.14-10.734-20.626-1.976,2.11.414,8.616-1.6,10.726Zm-18.165,33.006c6.545-8.861,12.507-18.3,14.855-31.352-2.9-2.329-5.591-4.861-9.078-6.608C345.763,747.851,342.022,762.536,343.711,775.524ZM383.4,751.6c3.986,7.6,8.251,14.845,12.38,22.272,7.516-11.191,15.471-21.942,19.82-36.289C403.349,740.762,393.975,746.8,383.4,751.6ZM125.831,787.044c5.861,10.921,10.674,22.9,16.51,33.834,9.112,1.207,15.843,7.68,23.95,6.6,8.656-1.156,13.681-11.815,21.467-14.026-13.343-6-23.114-16.778-24.769-32.179-.6-5.519,1.284-12.254,0-19.8-1.267-7.418-7.508-15.8-7.432-23.107-10.734,15.495-21.678,30.694-29.794,48.7Zm115.527-44.526c9.957,9.579,22.506,16.558,33.02,25.58.194-11.7,1.689-21.377-2.474-29.707C262.057,740.1,252.556,742.171,241.358,742.518ZM309.88,751.6c2.027,3.2.667,9.781,2.474,13.2,4.7-6.633,13.115-13.79,10.734-24.753-.169-.928-.912-1.283-1.647-1.688C318.114,743.319,313.6,747.058,309.88,751.6Zm-146.1,2.473a20.344,20.344,0,0,0-1.647-14.853h-2.525a35.371,35.371,0,0,0,4.13,14.853Zm18.165,11.553c-.633-8.347,1.1-14.3.845-22.28-4.29-.11-7.271-1.544-11.561-1.688,2.407,9.123,5.776,17.309,10.674,23.968Zm9.087,15.672c5.607,3.772,12.667,7.857,21.467,9.081,3.783.523,9.391-2.051,11.553,2.473-6.418,3.933-18.537,0-23.941-2.473-1.317,2.532,6.393,10.009,9.906,13.2,21.332-10.034,44.226-18.516,63.574-30.534-4.366-6.085-11.713-10.3-18.984-15.672-5.658-4.22-13.732-12.659-20.639-14.026-14.052-2.878-30.343,4.4-47.064,0-2.635,12.878-4.628,30.989,4.087,37.952Zm-21.467-31.352c4.13,11.655,4.535,5.7,0-2.473-.186-.641,0-1.629-.845-1.688a11.192,11.192,0,0,0,.8,4.16ZM345.4,804.4c14.415-.439,33.417-11.815,34.675-27.234,1.064-12.988-8.952-23.478-18.984-29.7C358.735,769.448,334.067,778.461,345.4,804.4ZM311.536,770.57c-2.458,6.11-1.866,13.25-4.13,19.807-2.128,6.169-6.866,11.149-6.6,18.145,13.073-5.806,32.538-15.469,33.847-32.171.659-8.439-5.118-19.613-9.078-27.234C325.47,758.569,314.821,762.426,311.536,770.57Zm-18.993.844c5.844,2.608,12.473-.591,15.691-3.3-.2-5.308.785-11.815-1.689-14.853-3.488,6.929-16.763,7.545-14,18.136ZM182.759,789.567c.557-17.613-11.114-23-15.691-35.445-1.664,15.427,9.306,25.183,15.665,35.428ZM117.53,804.42c8.665-17.284-.236-31.226-8.251-44.56-4.476,15.672-3.462,37.9,8.225,44.543Zm171.737-36.289c-4.442-.042-4.923,3.874-9.078,4.127,6.258,9.14,15.826,14.98,19.812,26.4,2.787-7.663,8.445-16.879,6.6-26.4-3.285,4.836-19.136,5.477-17.363-4.161Zm-99.1,42.045c-6.756-15.275-16.653-27.36-24.769-41.252C164.56,791.213,174.812,806.809,190.165,810.176ZM339.641,781.3c-.507-1.975,1.039-5.984-.845-6.6-.844,2.144-1.469,5.528.811,6.6Zm-64.4,35.446c11.122-.979,19.8-4.405,22.295-14.026a51.223,51.223,0,0,0-19.82-26.4c-1.655,12.71-1.917,26.745-2.508,40.459Zm-62.746-11.554c3.378,8.752,13.352,17.976,31.373,14.853,14.6-9.055,23.528-23.791,29.718-41.252-.093-1-.245-1.958-1.647-1.688-17.827,11.435-38.585,19.858-59.478,28.12Zm-6.612,0a124.663,124.663,0,0,0-20.639-24.753c-.625,15.436,7.651,30.627,20.606,24.787Zm164.305,4.127c-7.051,7.815-18.334,23.867-26.475,22.314-11.485-2.194-3.766-29.918-7.432-42.079-12.879,8.861-20.758,22.71-36.313,28.88-3.032,9.216-10.024,17.562-15.691,23.926-1.8,2.025-5.607,4.54-4.121,6.6,34.548,2.937,61.893-.793,84.213-14.853,17.473-10.971,36.575-27.918,31.373-51.978-1.056-.042-1.14-1.055-2.474-.844-5.971,9.368-12.693,16.541-23.114,28.069Zm-119.749,10.76A70.69,70.69,0,0,0,271.9,817.6c-1-9.283,2.533-18.339,0-26.407C267.284,803.357,259.194,812.058,250.436,820.075ZM137.325,817.6c-4.755-8.178-7.972-17.892-13.216-25.58-1.621,4.7-3.724,8.929-4.121,14.853C124.3,811.374,132.08,816.784,137.325,817.6Zm175.03-10.726c-4.146,1.907-9.239,2.861-11.553,6.6C304.062,813.974,309.34,809.374,312.355,806.876ZM200.881,811c3.842,3.865,10.2,9.6,18.165,6.6-5.27-3.857-10.548-14.474-18.148-6.6Zm-81.739,14.853c7.052,2.582,16.417,7.233,24.769,5.773-3.057-12.077-16.349-13.917-24.769-20.626-.355,7.047-1,9.494.017,14.853ZM200.881,814.3c-2.6.4-1.866-2.532-4.957-1.688-.346,2.135,4.332,3.325,4.974,1.688Zm90.817,4.945c.912-2.388,6.072-.532,4.957-4.945-2.956-.177-5.945,3.891-4.94,4.945ZM203.373,824.2c-3.682-2.532-8.073-8.043-11.561-8.254-7.4-.439-13.267,9.283-19.812,13.208,13.335,1.772,28.924,4.853,43.762,2.473C211.868,828.751,208.077,827.46,203.373,824.2Zm71.005,0c3.327,1.629,13.884-4.5,10.734-6.6-3.049,2.692-11.342.211-10.734,6.6Zm-59.444,1.688c-4.29-2.059-9.061-7.984-14.035-6.608,3.91,2.4,9.382,7.671,14.035,6.574Zm19.837,4.051c11.375,4.22,25.478-2.372,36.313-4.118-.473-1.451,1-4.853-.844-4.954C259.177,824.683,240.252,820.658,234.771,829.941Zm39.632.844v15.7c7.6-4,15.133-15.132,20.639-23.926-.093-1.013-.245-1.958-1.647-1.688-6.562,3.165-12.3,7.03-19.018,9.916Zm-47.064-2.473c1.427-4.085-7.6-8.777-13.208-5.773,5.151,1.165,6.283,6.38,13.183,5.789Zm9.914-4.954c-3.631,1.106-6.823-2.464-9.087,0,1.883,3.089,6.984,2.962,9.061.017Zm-90.023,9.959c5.354,1.131,15.437,2.321,16.51-3.3-7.33-1.2-13.6-3.452-19.812-5.773C144.6,827.662,146.834,829.553,147.231,833.317Zm-2.474,11.553c1.461-1.561.6-5.452.844-8.245-8.538-1.924-17.523-3.376-24.769-6.608,3.082,9.79,10.446,15.36,23.925,14.811Zm116.414-12.4a21.8,21.8,0,0,0,6.6-2.481C262.639,830.1,255.292,833.418,261.17,832.473Zm-72.627,2.473c3.192-1.646-2.956-.641-4.121-.844-7.339-1.139-18.106-5.216-19.82.844Zm53.668,1.688c6.942,6.262,18.131,8.279,28.9,10.726V833.317c-7.676,3.047-19.787,1.688-28.932,3.266Zm-12.38-.844c-20.462-3.671-45.079,6.456-68.531,2.473-5.32,7.114-17.338,18.254-11.561,31.352,4.814,10.9,33.51,13.022,53.668,11.554,24.237-1.764,44.4-14.811,57.8-21.453-6.655-8.954-16.62-21.335-31.407-23.959Zm33.847,20.626a15.74,15.74,0,0,0,7.432-5.773c-6.182-.709-13.6-4.549-18.165-4.127,3.783,3.064,7.9,5.79,10.7,9.866Zm4.13,1.688c.059,2.414,1.892,3.063,3.3,4.118-.5-1.966,1.039-5.984-.844-6.6a4.153,4.153,0,0,1-2.491,2.414Z" transform="translate(-738.5 -349.999)" fill="#ff5330" fill-rule="evenodd"/></g></svg>